# xmcd
#
# Track frame offsets:
#  150
#  14542
#  31530
#  47565
#  63871
#  84271
#  98566
#  124115
#  145774
#  162372
#
# Disc length: 2486 seconds
#
# Revision: 0
# Processed by: cddbd v1.4PL0 Copyright (c) Steve Scherf et al.
# Submitted via: AltoMP3_Maker 3.0
#
DISCID=6e09b40a
DTITLE=Joe Juliano - A Hot Cup of Joe Juliano
DYEAR=1900
DGENRE=
TTITLE0=99 1/2
TTITLE1=Cup-O-Joe
TTITLE2=Blues Is My Life
TTITLE3=Don't Lie to Me
TTITLE4=Must Be A Fool
TTITLE5=Bill Bobarooney's
TTITLE6=Must Be The Blues
TTITLE7=Make Love 2 U
TTITLE8=Get Out My Life
TTITLE9=Bad Feelings
EXTD=
EXTT0=
EXTT1=
EXTT2=
EXTT3=
EXTT4=
EXTT5=
EXTT6=
EXTT7=
EXTT8=
EXTT9=
PLAYORDER=
